<svg width="2000" height="923" viewBox="0 0 2000 923" fill="none" xmlns="http://www.w3.org/2000/svg">
<path d="M795.955 457.617C795.955 601.79 679.083 718.66 534.915 718.66C390.747 718.66 273.876 601.79 273.876 457.617C273.876 313.449 390.747 196.578 534.915 196.578C679.083 196.578 795.955 313.449 795.955 457.617Z" fill="#7C32BC"/>
<path d="M823.974 449.417C823.974 605.97 697.059 732.89 540.501 732.89C383.943 732.89 257.028 605.97 257.028 449.417C257.028 292.859 383.943 165.943 540.501 165.943C697.059 165.943 823.974 292.859 823.974 449.417Z" fill="url(#paint0_linear_10_12)"/>
<path d="M287.553 709.52L745.122 164.716L786.096 199.129L328.528 743.93L287.553 709.52Z" fill="url(#paint1_linear_10_12)"/>
<path d="M784.237 315.954L649.28 477.31L828.666 604.29C837.908 610.53 859.928 632.43 874.068 670.14C897.081 741.67 847.151 813.62 819.308 840.66L642.697 714.09C642.697 714.09 667.907 703.65 682.865 694.74C697.028 686.3 717.197 670.17 717.197 670.17C737.82 686.04 785.483 723.32 798.462 732.83C806.768 702.72 790.44 672.02 781.238 660.43C722.048 618.06 597.508 528.73 572.871 510.38C548.234 492.04 559.111 468.228 567.629 458.618C613.052 403.546 707.986 287.996 724.345 266.369C734.326 240.029 725.038 210.107 719.146 198.439C673.335 252.909 576.606 367.733 556.186 391.269C525.104 367.058 527.298 321.91 532.206 304.46L712.151 90.98C736.143 104.476 787.891 144.146 802.941 194.858C817.991 245.569 796.742 296.718 784.237 315.954Z" fill="url(#paint2_linear_10_12)"/>
<path d="M784.237 315.954L649.28 477.31L828.666 604.29C837.908 610.53 859.928 632.43 874.068 670.14C897.081 741.67 847.151 813.62 819.308 840.66L642.304 713.79C642.304 713.79 655.78 708.37 664.145 704.29C672.387 700.28 684.763 693.17 684.763 693.17C705.386 709.04 800.719 777.69 813.698 787.21C849.262 734.52 843.994 671.95 807.695 631.75C748.505 589.38 659.276 531.71 634.639 513.37C610.002 495.02 600.224 482.28 608.742 472.67C654.164 417.599 735.944 316.309 752.303 294.682C778.847 242.19 775.393 173.848 719.322 144.321C690.532 178.553 554.056 343.148 535.454 363.412C526.676 343.396 529.157 315.3 532.206 304.46L712.151 90.98C736.143 104.476 787.891 144.146 802.941 194.858C817.991 245.569 796.742 296.718 784.237 315.954Z" fill="url(#paint3_linear_10_12)"/>
<path d="M285.594 599.28L420.551 437.926L241.164 310.948C231.922 304.709 209.903 282.805 195.762 245.097C172.749 173.562 222.68 101.612 250.522 74.5781L417.992 194.001C417.992 194.001 399.684 203.543 384.726 212.455C370.563 220.894 349.031 239.894 349.031 239.894C328.409 224.031 284.348 191.918 271.369 182.4C263.062 212.512 279.39 243.215 288.593 254.803C347.783 297.175 472.323 386.506 496.96 404.853C521.597 423.2 510.72 447.007 502.202 456.617C456.779 511.69 361.844 627.24 345.486 648.87C335.504 675.21 344.792 705.13 350.684 716.8C396.496 662.33 493.224 547.5 513.645 523.97C544.726 548.18 542.533 593.33 537.625 610.77L357.68 824.25C333.687 810.76 281.94 771.09 266.89 720.38C251.84 669.67 273.088 618.52 285.594 599.28Z" fill="url(#paint4_linear_10_12)"/>
<path d="M285.594 599.28L420.551 437.926L241.164 310.948C231.922 304.709 209.903 282.805 195.762 245.097C172.749 173.562 222.68 101.612 250.522 74.5781L417.749 194.001C417.749 194.001 406.522 200.49 398.157 204.562C389.915 208.573 379.454 216.411 379.454 216.411C358.832 200.547 270.396 138.83 257.417 129.312C221.853 181.999 225.837 243.282 262.135 283.484C321.325 325.856 410.555 383.522 435.192 401.869C459.829 420.216 469.607 432.954 461.089 442.564C415.666 497.64 333.887 598.93 317.528 620.55C290.984 673.05 294.438 741.39 350.509 770.91C379.299 736.68 515.774 572.09 534.376 551.82C543.155 571.84 540.674 599.93 537.625 610.77L357.68 824.25C333.687 810.76 281.94 771.09 266.89 720.38C251.84 669.67 273.088 618.52 285.594 599.28Z" fill="url(#paint5_linear_10_12)"/>
<path d="M350.602 717.87C336.382 680.93 341.219 656.52 345.415 648.94C347.565 645.05 439.181 530.35 534.368 415.985C624.894 307.219 719.275 198.413 719.275 198.413C734.346 221.531 728.307 262.655 724.549 266.243C721.108 270.995 655.438 354.477 578.864 446.788C477.862 568.55 359.054 707.36 350.602 717.87Z" fill="white"/>
<path d="M929.942 287.07L1069.54 287.47C1146.74 287.47 1209.54 349.87 1209.54 427.07C1209.54 461.47 1197.14 493.07 1176.34 517.47C1173.94 520.27 1171.14 523.07 1168.34 525.87C1143.14 551.47 1108.34 567.07 1069.94 567.07H929.942V287.07ZM979.542 337.47V517.47H1069.54C1119.14 517.47 1159.54 477.07 1159.54 427.47C1159.54 377.87 1119.14 337.47 1069.54 337.47H979.542ZM1325.46 337.07C1311.46 337.07 1299.86 348.67 1299.86 362.67V388.67H1479.86V438.67H1299.86V491.47C1299.86 505.47 1311.46 517.07 1325.46 517.07H1529.86V567.07H1325.46C1283.86 567.07 1250.26 533.07 1250.26 491.47V362.67C1250.26 321.07 1283.86 287.07 1325.46 287.07H1529.86V337.07H1325.46ZM1783.39 287.07H1839.39L1813.79 337.07L1696.59 567.07L1579.39 337.07L1553.79 287.07H1609.79L1635.39 337.07L1696.59 457.07L1757.79 337.07L1783.39 287.07Z" fill="black"/>
<defs>
<linearGradient id="paint0_linear_10_12" x1="292.853" y1="181.452" x2="769.857" y2="735.73" gradientUnits="userSpaceOnUse">
<stop stop-color="#591D8A"/>
<stop offset="0.136269" stop-color="#411D5E"/>
<stop offset="0.502267"/>
<stop offset="0.87208" stop-color="#2D1556"/>
<stop offset="1" stop-color="#7B39EA"/>
</linearGradient>
<linearGradient id="paint1_linear_10_12" x1="235.709" y1="548.46" x2="695.71" y2="731.42" gradientUnits="userSpaceOnUse">
<stop stop-color="#1E1D62"/>
<stop offset="0.136269" stop-color="#9B20FF"/>
<stop offset="0.502267" stop-color="#7B2BBD"/>
<stop offset="0.87208" stop-color="#5D15D5"/>
<stop offset="1" stop-color="#5E5BF0"/>
</linearGradient>
<linearGradient id="paint2_linear_10_12" x1="534.915" y1="840.66" x2="534.915" y2="74.578" gradientUnits="userSpaceOnUse">
<stop stop-color="#856FF6"/>
<stop offset="0.31" stop-color="#B263F0"/>
<stop offset="0.615" stop-color="#D752E8"/>
<stop offset="1" stop-color="#B03AF8"/>
</linearGradient>
<linearGradient id="paint3_linear_10_12" x1="534.915" y1="840.66" x2="534.915" y2="74.578" gradientUnits="userSpaceOnUse">
<stop stop-color="#716EFC"/>
<stop offset="0.335" stop-color="#C079F2"/>
<stop offset="0.665" stop-color="#F0B2F1"/>
<stop offset="1" stop-color="#C361F1"/>
</linearGradient>
<linearGradient id="paint4_linear_10_12" x1="711.573" y1="724.79" x2="605.949" y2="78.5941" gradientUnits="userSpaceOnUse">
<stop stop-color="#5D2EC0"/>
<stop offset="0.225689" stop-color="#7C32BC"/>
<stop offset="0.540146" stop-color="#BA62ED"/>
<stop offset="1" stop-color="#4B1D71"/>
</linearGradient>
<linearGradient id="paint5_linear_10_12" x1="454.899" y1="710.87" x2="268.908" y2="120.176" gradientUnits="userSpaceOnUse">
<stop stop-color="#4B1D71"/>
<stop offset="0.32" stop-color="#BA62ED"/>
<stop offset="0.515" stop-color="#7C32BC"/>
<stop offset="1" stop-color="#5D2EC0"/>
</linearGradient>
</defs>
</svg>
