<svg width="2000" height="886" viewBox="0 0 2000 886" fill="none" xmlns="http://www.w3.org/2000/svg">
<path d="M777.955 444.617C777.955 588.785 661.083 705.657 516.915 705.657C372.747 705.657 255.876 588.785 255.876 444.617C255.876 300.449 372.747 183.578 516.915 183.578C661.083 183.578 777.955 300.449 777.955 444.617Z" fill="#7C32BC"/>
<path d="M805.974 436.417C805.974 592.975 679.059 719.89 522.501 719.89C365.943 719.89 239.028 592.975 239.028 436.417C239.028 279.859 365.943 152.943 522.501 152.943C679.059 152.943 805.974 279.859 805.974 436.417Z" fill="url(#paint0_linear_6_3)"/>
<path d="M269.553 696.515L727.122 151.716L768.096 186.129L310.528 730.929L269.553 696.515Z" fill="url(#paint1_linear_6_3)"/>
<path d="M766.237 302.954L631.28 464.308L810.666 591.287C819.908 597.525 841.928 619.43 856.068 657.138C879.081 728.672 829.151 800.623 801.308 827.656L624.697 701.087C624.697 701.087 649.907 690.652 664.865 681.74C679.028 673.301 699.197 657.174 699.197 657.174C719.82 673.037 767.483 710.316 780.462 719.834C788.768 689.723 772.44 659.02 763.238 647.432C704.048 605.06 579.508 515.729 554.871 497.382C530.234 479.035 541.111 455.228 549.629 445.618C595.052 390.546 689.986 274.996 706.345 253.369C716.326 227.029 707.038 197.107 701.146 185.439C655.335 239.909 558.606 354.733 538.186 378.269C507.104 354.058 509.298 308.91 514.206 291.46L694.151 77.9804C718.143 91.4763 769.891 131.146 784.941 181.858C799.991 232.569 778.742 283.718 766.237 302.954Z" fill="url(#paint2_linear_6_3)"/>
<path d="M766.237 302.954L631.28 464.308L810.666 591.287C819.908 597.525 841.928 619.43 856.068 657.138C879.081 728.672 829.151 800.623 801.308 827.656L624.304 700.786C624.304 700.786 637.78 695.366 646.145 691.295C654.387 687.284 666.763 680.172 666.763 680.172C687.386 696.035 782.719 764.69 795.698 774.208C831.262 721.52 825.994 658.953 789.695 618.751C730.505 576.379 641.276 518.712 616.639 500.366C592.002 482.019 582.224 469.281 590.742 459.671C636.164 404.599 717.944 303.309 734.303 281.682C760.847 229.19 757.393 160.848 701.322 131.321C672.532 165.553 536.056 330.148 517.454 350.412C508.676 330.396 511.157 302.3 514.206 291.46L694.151 77.9804C718.143 91.4763 769.891 131.146 784.941 181.858C799.991 232.569 778.742 283.718 766.237 302.954Z" fill="url(#paint3_linear_6_3)"/>
<path d="M267.594 586.281L402.551 424.926L223.164 297.948C213.922 291.709 191.903 269.805 177.762 232.097C154.749 160.562 204.68 88.6119 232.522 61.5785L399.992 181.001C399.992 181.001 381.684 190.543 366.726 199.455C352.563 207.894 331.031 226.894 331.031 226.894C310.409 211.031 266.348 178.918 253.369 169.4C245.062 199.512 261.39 230.215 270.593 241.803C329.783 284.175 454.323 373.506 478.96 391.853C503.597 410.2 492.72 434.007 484.202 443.617C438.779 498.689 343.844 614.239 327.486 635.866C317.504 662.206 326.792 692.128 332.684 703.796C378.496 649.326 475.224 534.502 495.645 510.966C526.726 535.177 524.533 580.325 519.625 597.774L339.68 811.254C315.687 797.758 263.94 758.089 248.89 707.377C233.84 656.665 255.088 605.516 267.594 586.281Z" fill="url(#paint4_linear_6_3)"/>
<path d="M267.594 586.281L402.551 424.926L223.164 297.948C213.922 291.709 191.903 269.805 177.762 232.097C154.749 160.562 204.68 88.6119 232.522 61.5785L399.749 181.001C399.749 181.001 388.522 187.49 380.157 191.562C371.915 195.573 361.454 203.411 361.454 203.411C340.832 187.547 252.396 125.83 239.417 116.312C203.853 168.999 207.837 230.282 244.135 270.484C303.325 312.856 392.555 370.522 417.192 388.869C441.829 407.216 451.607 419.954 443.089 429.564C397.666 484.636 315.887 585.926 299.528 607.553C272.984 660.045 276.438 728.386 332.509 757.913C361.299 723.682 497.774 559.087 516.376 538.823C525.155 558.838 522.674 586.935 519.625 597.774L339.68 811.254C315.687 797.758 263.94 758.089 248.89 707.377C233.84 656.665 255.088 605.516 267.594 586.281Z" fill="url(#paint5_linear_6_3)"/>
<path d="M332.602 704.868C318.382 667.927 323.219 643.523 327.415 635.94C329.565 632.052 421.181 517.353 516.368 402.985C606.894 294.219 701.275 185.413 701.275 185.413C716.346 208.531 710.307 249.655 706.549 253.243C703.108 257.995 637.438 341.477 560.864 433.788C459.862 555.548 341.054 694.36 332.602 704.868Z" fill="white"/>
<path d="M911.942 274.07L1051.54 274.47C1128.74 274.47 1191.54 336.87 1191.54 414.07C1191.54 448.47 1179.14 480.07 1158.34 504.47C1155.94 507.27 1153.14 510.07 1150.34 512.87C1125.14 538.47 1090.34 554.07 1051.94 554.07H911.942V274.07ZM961.542 324.47V504.47H1051.54C1101.14 504.47 1141.54 464.07 1141.54 414.47C1141.54 364.87 1101.14 324.47 1051.54 324.47H961.542ZM1307.46 324.07C1293.46 324.07 1281.86 335.67 1281.86 349.67V375.67H1461.86V425.67H1281.86V478.47C1281.86 492.47 1293.46 504.07 1307.46 504.07H1511.86V554.07H1307.46C1265.86 554.07 1232.26 520.07 1232.26 478.47V349.67C1232.26 308.07 1265.86 274.07 1307.46 274.07H1511.86V324.07H1307.46ZM1765.39 274.07H1821.39L1795.79 324.07L1678.59 554.07L1561.39 324.07L1535.79 274.07H1591.79L1617.39 324.07L1678.59 444.07L1739.79 324.07L1765.39 274.07Z" fill="white"/>
<defs>
<linearGradient id="paint0_linear_6_3" x1="274.853" y1="168.452" x2="751.857" y2="722.727" gradientUnits="userSpaceOnUse">
<stop stop-color="#591D8A"/>
<stop offset="0.136269" stop-color="#411D5E"/>
<stop offset="0.502267"/>
<stop offset="0.87208" stop-color="#2D1556"/>
<stop offset="1" stop-color="#7B39EA"/>
</linearGradient>
<linearGradient id="paint1_linear_6_3" x1="217.709" y1="535.464" x2="677.71" y2="718.419" gradientUnits="userSpaceOnUse">
<stop stop-color="#1E1D62"/>
<stop offset="0.136269" stop-color="#9B20FF"/>
<stop offset="0.502267" stop-color="#7B2BBD"/>
<stop offset="0.87208" stop-color="#5D15D5"/>
<stop offset="1" stop-color="#5E5BF0"/>
</linearGradient>
<linearGradient id="paint2_linear_6_3" x1="516.915" y1="827.656" x2="516.915" y2="61.5785" gradientUnits="userSpaceOnUse">
<stop stop-color="#856FF6"/>
<stop offset="0.31" stop-color="#B263F0"/>
<stop offset="0.615" stop-color="#D752E8"/>
<stop offset="1" stop-color="#B03AF8"/>
</linearGradient>
<linearGradient id="paint3_linear_6_3" x1="516.915" y1="827.656" x2="516.915" y2="61.5785" gradientUnits="userSpaceOnUse">
<stop stop-color="#716EFC"/>
<stop offset="0.335" stop-color="#C079F2"/>
<stop offset="0.665" stop-color="#F0B2F1"/>
<stop offset="1" stop-color="#C361F1"/>
</linearGradient>
<linearGradient id="paint4_linear_6_3" x1="693.573" y1="711.787" x2="587.949" y2="65.5942" gradientUnits="userSpaceOnUse">
<stop stop-color="#5D2EC0"/>
<stop offset="0.225689" stop-color="#7C32BC"/>
<stop offset="0.540146" stop-color="#BA62ED"/>
<stop offset="1" stop-color="#4B1D71"/>
</linearGradient>
<linearGradient id="paint5_linear_6_3" x1="436.899" y1="697.866" x2="250.908" y2="107.176" gradientUnits="userSpaceOnUse">
<stop stop-color="#4B1D71"/>
<stop offset="0.32" stop-color="#BA62ED"/>
<stop offset="0.515" stop-color="#7C32BC"/>
<stop offset="1" stop-color="#5D2EC0"/>
</linearGradient>
</defs>
</svg>
